<?xml version="1.0" encoding="UTF-8" standalone="no"?>
<svg width="223px" height="223px" viewBox="0 0 223 223" version="1.1" xmlns="http://www.w3.org/2000/svg" xmlns:xlink="http://www.w3.org/1999/xlink">
    <!-- Generator: Sketch 41 (35326) - http://www.bohemiancoding.com/sketch -->
    <title>Earth2x</title>
    <desc>Created with Sketch.</desc>
    <defs>
        <path d="M16.2533307,62.7324516 C19.074387,56.7807258 22.4114157,51.1211822 26.2066473,45.8115903 M50.6627694,199.052449 C44.2627133,194.333407 38.3897811,188.940771 33.1485937,182.979163" id="path-1"></path>
        <path d="M27.9325594,177.44772 C13.5626307,158.839116 5.01374919,135.505875 5.01374919,110.175833 C5.01374919,93.3137029 8.80220585,77.3364605 15.5743941,63.0488305 C18.385732,57.1176079 21.7112649,51.4775611 25.4934222,46.1862604 C45.4735531,18.2337269 78.1968306,0.0137491862 115.175833,0.0137491862 C176.016939,0.0137491862 225.337916,49.3347264 225.337916,110.175833 L225.337916,110.175833 C225.337916,171.016939 176.016939,220.337916 115.175833,220.337916 C93.264265,220.337916 72.8469017,213.940798 55.6894986,202.912318" id="path-3"></path>
        <path d="M243.331824,184.953045 C245.088913,183.750444 246.241414,181.730717 246.241414,179.441953 C246.241414,177.080738 245.009422,175.000852 243.151436,173.813736 L246.145611,173.813736 C249.836231,173.813736 252.826463,170.825109 252.826463,167.13845 C252.826463,164.611953 251.415957,162.407547 249.337319,161.274275 L251.986486,161.274275 C255.677106,161.274275 258.667338,158.285648 258.667338,154.598989 C258.667338,150.919832 255.676219,147.923703 251.986486,147.923703 L241.8308,147.923703 C243.907938,146.791691 245.316766,144.590046 245.316766,142.059528 C245.316766,138.38037 242.325647,135.384241 238.635914,135.384241 L227.645817,135.384241 C229.722955,134.25223 231.131783,132.050584 231.131783,129.520066 C231.131783,126.971717 229.696773,124.751055 227.588555,123.626727 C230.978358,123.310154 233.635015,120.455441 233.635015,116.980605 C233.635015,114.358923 232.117758,112.084058 229.911888,110.992944 C232.981392,110.394106 235.303837,107.688402 235.303837,104.441144 C235.303837,100.761987 232.315282,97.7658579 228.628712,97.7658579 L226.814926,97.7658579 C228.888673,96.6338462 230.298376,94.4322009 230.298376,91.9016828 C230.298376,88.2225257 227.311879,85.2263967 223.627849,85.2263967 L180.085296,85.2263967 C182.161209,84.094385 183.570369,81.8927397 183.570369,79.3622217 C183.570369,76.8357242 182.16065,74.6313185 180.083171,73.4980466 L235.3096,73.4980466 C238.988036,73.4980466 241.980127,70.5094192 241.980127,66.8227605 C241.980127,63.9479744 240.15675,61.4902046 237.601966,60.5529353 C240.153296,59.6166183 241.980127,57.1628907 241.980127,54.2832993 C241.980127,51.4079524 240.156232,48.9497845 237.600934,48.0129258 C240.153911,47.0761993 241.980127,44.6228675 241.980127,41.7438381 C241.980127,38.8697187 240.156377,36.4124222 237.600816,35.4746653 C240.153851,34.538836 241.980127,32.0846373 241.980127,29.2043769 C241.980127,25.5252198 238.993672,22.5290908 235.309693,22.5290908 L176.891235,22.5290908 C173.21285,22.5290908 170.220801,25.5177182 170.220801,29.2043769 C170.220801,31.7308744 171.629107,33.93528 173.704504,35.0685519 L171.05391,35.0685519 C167.373431,35.0685519 164.378921,38.0571794 164.378921,41.7438381 C164.378921,44.2703355 165.788189,46.4747412 167.865003,47.6080131 L165.207867,47.6080131 C161.532396,47.6080131 158.538046,50.5966405 158.538046,54.2832993 C158.538046,57.9624564 161.524227,60.9585854 165.207867,60.9585854 L173.703247,60.9585854 C171.6295,62.0905971 170.219797,64.2922424 170.219797,66.8227605 C170.219797,69.5557499 171.867736,71.9118466 174.225389,72.9429302 C171.431804,73.7408499 169.385386,76.3127371 169.385386,79.3622217 C169.385386,81.8887191 170.795105,84.0931248 172.872585,85.2263967 L165.208574,85.2263967 C161.530137,85.2263967 158.538046,88.2150241 158.538046,91.9016828 C158.538046,94.4281803 159.946372,96.632586 162.021798,97.7658579 L153.53142,97.7658579 C149.849784,97.7658579 146.856295,100.754485 146.856295,104.441144 C146.856295,106.967641 148.265592,109.172047 150.342448,110.305319 L146.855124,110.305319 C143.171433,110.305319 140.181009,113.293946 140.181009,116.980605 C140.181009,120.659762 143.169112,123.655891 146.855124,123.655891 L159.520779,123.655891 C157.443642,124.787903 156.034814,126.989548 156.034814,129.520066 C156.034814,133.199224 159.025933,136.195353 162.715666,136.195353 L173.705762,136.195353 C171.628625,137.327364 170.219797,139.52901 170.219797,142.059528 C170.219797,145.738685 173.210916,148.734814 176.900649,148.734814 L187.056335,148.734814 C184.979197,149.866825 183.570369,152.068471 183.570369,154.598989 C183.570369,157.125486 184.980875,159.329892 187.059513,160.463164 L184.410346,160.463164 C180.719726,160.463164 177.729494,163.451791 177.729494,167.13845 C177.729494,169.499664 178.961486,171.579551 180.819471,172.766667 L177.825296,172.766667 C174.134677,172.766667 171.144444,175.755294 171.144444,179.441953 C171.144444,181.714903 172.286052,183.727165 174.028719,184.933333 L172.713598,184.933333 C169.038127,184.933333 166.043777,187.921961 166.043777,191.608619 C166.043777,195.287777 169.029958,198.283906 172.713598,198.283906 L242.816037,198.283906 C246.491508,198.283906 249.485858,195.295278 249.485858,191.608619 C249.485858,188.102808 246.77444,185.217179 243.331824,184.953045 L243.331824,184.953045 Z M106.953056,25.8900335 L106.8105,25.8900335 C103.120571,25.8900335 100.129292,22.8939045 100.129292,19.2147473 C100.129292,16.6842293 101.539899,14.482584 103.617047,13.3505723 L79.272036,13.3505723 C79.2191995,13.3505723 79.1665063,13.3499574 79.1139632,13.3487345 C81.1945593,14.4814599 82.6066661,16.6868835 82.6066661,19.2147473 C82.6066661,21.7452654 81.196059,23.9469107 79.1189114,25.0789224 L87.6050441,25.0789224 C91.2961689,25.0789224 94.2884169,28.0750514 94.2884169,31.7542085 C94.2884169,35.4408673 91.3063981,38.4294947 87.6050441,38.4294947 L84.9650954,38.4294947 C87.0397436,39.5627666 88.4475415,41.7671723 88.4475415,44.2936697 C88.4475415,46.8241878 87.0380271,49.0258331 84.9650773,50.1578448 L86.7798909,50.1578448 C90.4659029,50.1578448 93.4540061,53.1539738 93.4540061,56.8331309 C93.4540061,60.5197896 90.4635821,63.5084171 86.7798909,63.5084171 L68.2756232,63.5084171 C70.3510201,64.641689 71.7593261,66.8460946 71.7593261,69.3725921 C71.7593261,73.0592508 68.7672773,76.0478782 65.088892,76.0478782 L54.9243536,76.0478782 C57.0001659,77.1811502 58.4087538,79.3855558 58.4087538,81.9120533 C58.4087538,85.598712 55.4218486,88.5873394 51.7369845,88.5873394 L46.5790412,88.5873394 C48.6555712,89.7206113 50.0646461,91.925017 50.0646461,94.4515145 C50.0646461,98.1381732 47.0828047,101.126801 43.3905702,101.126801 L35.7348601,101.126801 C37.8095082,102.260073 39.2173061,104.464478 39.2173061,106.990976 C39.2173061,109.47038 37.8641577,111.634064 35.8596371,112.785252 L48.4016893,112.785252 C52.085109,112.785252 55.0711107,115.781381 55.0711107,119.460538 C55.0711107,121.441644 54.2098698,123.221181 52.8408737,124.443703 L72.8513182,124.443703 C76.5372672,124.443703 79.5253193,127.439832 79.5253193,131.118989 C79.5253193,133.649507 78.1159843,135.851152 76.041092,136.983164 L88.7014629,136.983164 C92.3894332,136.983164 95.3791239,139.979293 95.3791239,143.65845 C95.3791239,146.188968 93.9688713,148.390614 91.8928497,149.522625 L111.978993,149.522625 C115.662972,149.522625 118.649427,152.518754 118.649427,156.197911 C118.649427,158.84344 117.108693,161.129522 114.879233,162.209736 C117.89419,162.85492 120.155151,165.537875 120.155151,168.737373 C120.155151,172.424031 117.161894,175.412659 113.47749,175.412659 L106.35972,175.412659 C108.234967,176.595736 109.481077,178.687436 109.481077,181.064175 C109.481077,183.770242 107.874187,186.100224 105.56128,187.148252 C107.872942,188.198194 109.481077,190.530554 109.481077,193.230842 C109.481077,195.917893 107.89179,198.234126 105.606488,199.292635 C107.699141,200.421367 109.121413,202.634129 109.121413,205.17185 C109.121413,208.858509 106.130476,211.847137 102.444286,211.847137 L101.613558,211.847137 C97.9258821,211.847137 94.9364304,208.851008 94.9364304,205.17185 C94.9364304,203.032239 95.9438521,201.127741 97.5099313,199.906128 L93.6200139,199.906128 C89.9373641,199.906128 86.9519865,196.909999 86.9519865,193.230842 C86.9519865,190.954536 88.0925295,188.944346 89.8305553,187.739461 L87.7805326,187.739461 C84.0971128,187.739461 81.1111111,184.743332 81.1111111,181.064175 C81.1111111,178.683814 82.3544657,176.594453 84.2280098,175.412659 L72.5961117,175.412659 C68.9081414,175.412659 65.9184507,172.41653 65.9184507,168.737373 C65.9184507,166.206854 67.3287033,164.005209 69.4047249,162.873197 L53.5605348,162.873197 C49.8765557,162.873197 46.8901006,159.877068 46.8901006,156.197911 C46.8901006,153.667393 48.2997844,151.465748 50.3735025,150.333736 L47.8200849,150.333736 C44.1321146,150.333736 41.1424239,147.337607 41.1424239,143.65845 C41.1424239,139.971791 44.1356801,136.983164 47.8200849,136.983164 L49.6344544,136.983164 C47.5579476,135.849892 46.1488885,133.645486 46.1488885,131.118989 C46.1488885,129.137883 47.0126838,127.358346 48.3833814,126.135824 L33.370566,126.135824 C29.6871463,126.135824 26.7011446,123.139695 26.7011446,119.460538 C26.7011446,116.981133 28.0501198,114.81745 30.0551379,113.666262 L23.3562428,113.666262 C19.6735929,113.666262 16.6882154,110.670133 16.6882154,106.990976 C16.6882154,104.460458 18.0977297,102.258812 20.1706796,101.126801 L6.67407593,101.126801 C2.98808557,101.126801 0,98.1306716 0,94.4515145 C0,91.5712089 1.82010226,89.1169785 4.37707915,88.1811821 C1.82281358,87.2433923 0,84.7861277 0,81.9120533 C0,79.0320871 1.82276359,76.5780956 4.3771043,75.6420518 C1.82287751,74.7045091 0,72.2470045 0,69.3725921 C0,66.4924394 1.82613898,64.0383166 4.37902422,63.1024087 C1.82364768,62.1647303 0,59.7073576 0,56.8331309 C0,53.1464722 2.99042396,50.1578448 6.67411518,50.1578448 L16.0054912,50.1578448 C13.9267422,49.0245728 12.5161615,46.8201672 12.5161615,44.2936697 C12.5161615,40.607011 15.5101702,37.6183836 19.1973694,37.6183836 L31.8604264,37.6183836 C29.7810039,36.4851117 28.3699661,34.280706 28.3699661,31.7542085 C28.3699661,28.0675498 31.3519849,25.0789224 35.0533389,25.0789224 L46.0442788,25.0789224 C43.9655299,23.9456505 42.5549492,21.7412448 42.5549492,19.2147473 C42.5549492,15.5280886 45.5489579,12.5394612 49.2361571,12.5394612 L75.9254582,12.5394612 C75.9787798,12.5394612 76.0319555,12.5400868 76.0849783,12.5413312 C74.0052557,11.4086154 72.5937369,9.20317395 72.5937369,6.67528615 C72.5937369,2.98862741 75.5832309,0 79.272036,0 L126.827424,0 C130.515747,0 133.505723,2.99612902 133.505723,6.67528615 C133.505723,9.20580423 132.097243,11.4074495 130.02091,12.5394612 L133.499801,12.5394612 C137.18973,12.5394612 140.181009,15.5355902 140.181009,19.2147473 C140.181009,22.9014061 137.187,25.8900335 133.499801,25.8900335 L125.013004,25.8900335 C127.089921,27.0233054 128.499258,29.2277111 128.499258,31.7542085 C128.499258,35.4408673 125.504639,38.4294947 121.823938,38.4294947 L110.142255,38.4294947 C106.455578,38.4294947 103.466935,35.4333657 103.466935,31.7542085 C103.466935,29.2236904 104.87783,27.0220451 106.953056,25.8900335 L106.953056,25.8900335 Z M69.4009149,38.4294947 L49.0785488,38.4294947 C51.1572978,39.5627666 52.5678784,41.7671723 52.5678784,44.2936697 C52.5678784,46.8241878 51.1572713,49.0258331 49.0801237,50.1578448 L69.4008968,50.1578448 C67.3262487,49.0245728 65.9184507,46.8201672 65.9184507,44.2936697 C65.9184507,41.7631516 67.3279651,39.5615063 69.4009149,38.4294947 L69.4009149,38.4294947 Z" id="path-5"></path>
        <mask id="mask-6" maskContentUnits="userSpaceOnUse" maskUnits="objectBoundingBox" x="0" y="0" width="258.667338" height="211.847137" fill="white">
            <use xlink:href="#path-5"></use>
        </mask>
    </defs>
    <g id="Symbols" stroke="none" stroke-width="1" fill="none" fill-rule="evenodd">
        <g id="Earth" transform="translate(-4.000000, 1.000000)">
            <g id="Group-6">
                <g>
                    <mask id="mask-2" fill="white">
                        <use xlink:href="#path-1"></use>
                    </mask>
                    <use id="Mask-Copy" stroke="#384773" stroke-width="2" fill="#FFFFFF" xlink:href="#path-1"></use>
                    <mask id="mask-4" fill="white">
                        <use xlink:href="#path-3"></use>
                    </mask>
                    <use id="Mask-Copy" stroke="#384773" stroke-width="2" fill="#ECEEF1" xlink:href="#path-3"></use>
                    <g id="Group-5" mask="url(#mask-4)" stroke="#384773" stroke-width="4" fill="#FFFFFF">
                        <g transform="translate(0.700000, 7.488889)" id="Combined-Shape">
                            <use mask="url(#mask-6)" xlink:href="#path-5"></use>
                        </g>
                    </g>
                </g>
            </g>
        </g>
    </g>
</svg>