<?xml version="1.0" encoding="UTF-8" standalone="no"?>
<svg width="114px" height="114px" viewBox="0 0 114 114" version="1.1" xmlns="http://www.w3.org/2000/svg" xmlns:xlink="http://www.w3.org/1999/xlink">
    <!-- Generator: Sketch 41 (35326) - http://www.bohemiancoding.com/sketch -->
    <title>Icon Choose the...2x</title>
    <desc>Created with Sketch.</desc>
    <defs>
        <rect id="path-1" x="-3.55271368e-15" y="0" width="32" height="29"></rect>
        <mask id="mask-2" maskContentUnits="userSpaceOnUse" maskUnits="objectBoundingBox" x="0" y="0" width="32" height="29" fill="white">
            <use xlink:href="#path-1"></use>
        </mask>
        <rect id="path-3" x="29.0909091" y="0" width="18.9090909" height="29"></rect>
        <mask id="mask-4" maskContentUnits="userSpaceOnUse" maskUnits="objectBoundingBox" x="0" y="0" width="18.9090909" height="29" fill="white">
            <use xlink:href="#path-3"></use>
        </mask>
        <rect id="path-5" x="0" y="0" width="22" height="20"></rect>
        <mask id="mask-6" maskContentUnits="userSpaceOnUse" maskUnits="objectBoundingBox" x="0" y="0" width="22" height="20" fill="white">
            <use xlink:href="#path-5"></use>
        </mask>
        <rect id="path-7" x="20" y="0" width="13" height="20"></rect>
        <mask id="mask-8" maskContentUnits="userSpaceOnUse" maskUnits="objectBoundingBox" x="0" y="0" width="13" height="20" fill="white">
            <use xlink:href="#path-7"></use>
        </mask>
        <rect id="path-9" x="0" y="0" width="20" height="22"></rect>
        <mask id="mask-10" maskContentUnits="userSpaceOnUse" maskUnits="objectBoundingBox" x="0" y="0" width="20" height="22" fill="white">
            <use xlink:href="#path-9"></use>
        </mask>
        <rect id="path-11" x="18" y="0" width="14" height="22"></rect>
        <mask id="mask-12" maskContentUnits="userSpaceOnUse" maskUnits="objectBoundingBox" x="0" y="0" width="14" height="22" fill="white">
            <use xlink:href="#path-11"></use>
        </mask>
    </defs>
    <g id="Symbols" stroke="none" stroke-width="1" fill="none" fill-rule="evenodd">
        <g id="Icon-Choose-the...">
            <g>
                <circle id="Oval-12" fill="#EDEEF2" cx="57" cy="57" r="57"></circle>
                <g id="Group-3" transform="translate(39.000000, 50.000000)">
                    <use id="Rectangle-16-Copy-8" stroke="#384773" mask="url(#mask-2)" stroke-width="4" fill="#FFFFFF" transform="translate(16.000000, 14.500000) scale(-1, 1) translate(-16.000000, -14.500000) " xlink:href="#path-1"></use>
                    <rect id="Rectangle-4" fill="#733A26" x="16" y="4" width="11" height="2"></rect>
                    <polygon id="Triangle" fill="#3E4034" points="23 14 27 22 19 22"></polygon>
                    <use id="Rectangle-16-Copy-10" stroke="#384773" mask="url(#mask-4)" stroke-width="4" fill="#A6998A" transform="translate(38.545455, 14.500000) scale(-1, 1) translate(-38.545455, -14.500000) " xlink:href="#path-3"></use>
                    <path d="M47,18 L30,18" id="Path-24-Copy-5" stroke="#384773" stroke-width="2"></path>
                    <path d="M47,10.5 L30,10.5" id="Path-24-Copy-6" stroke="#384773"></path>
                </g>
                <g id="Group-3-Copy" transform="translate(27.000000, 59.000000)">
                    <use id="Rectangle-16-Copy-8" stroke="#384773" mask="url(#mask-6)" stroke-width="4" stroke-linejoin="round" fill="#FFFFFF" transform="translate(11.000000, 10.000000) scale(-1, 1) translate(-11.000000, -10.000000) " xlink:href="#path-5"></use>
                    <ellipse id="Oval-4" fill="#BF784E" cx="15" cy="7" rx="3" ry="3"></ellipse>
                    <use id="Rectangle-16-Copy-10" stroke="#384773" mask="url(#mask-8)" stroke-width="4" fill="#A6998A" transform="translate(26.500000, 10.000000) scale(-1, 1) translate(-26.500000, -10.000000) " xlink:href="#path-7"></use>
                    <path d="M28,2 L28,18" id="Path-24-Copy-4" stroke="#384773" stroke-width="2"></path>
                    <path d="M25,2 L25,18" id="Path-24-Copy-5" stroke="#384773" stroke-width="2"></path>
                </g>
                <g id="Group-3-Copy-2" transform="translate(46.000000, 30.000000)">
                    <use id="Rectangle-16-Copy-8" stroke="#384773" mask="url(#mask-10)" stroke-width="4" fill="#FFFFFF" transform="translate(10.000000, 11.000000) scale(-1, 1) translate(-10.000000, -11.000000) " xlink:href="#path-9"></use>
                    <rect id="Rectangle-7" fill="#733A26" x="4" y="14" width="4" height="4"></rect>
                    <rect id="Rectangle-7-Copy" fill="#3E4034" x="4" y="4" width="12" height="1"></rect>
                    <use id="Rectangle-16-Copy-10" stroke="#384773" mask="url(#mask-12)" stroke-width="4" fill="#A6998A" transform="translate(25.000000, 11.000000) scale(-1, 1) translate(-25.000000, -11.000000) " xlink:href="#path-11"></use>
                    <path d="M25.5,1.5 L25.5,20" id="Path-24-Copy-5" stroke="#384773"></path>
                </g>
            </g>
        </g>
    </g>
</svg>