<?xml version="1.0" encoding="UTF-8" standalone="no"?>
<svg width="221px" height="101px" viewBox="0 0 221 101" version="1.1" xmlns="http://www.w3.org/2000/svg" xmlns:xlink="http://www.w3.org/1999/xlink">
    <!-- Generator: Sketch 41 (35326) - http://www.bohemiancoding.com/sketch -->
    <title>Icon We wish2x</title>
    <desc>Created with Sketch.</desc>
    <defs>
        <path d="M11,19.5332031 L11,11.0015 C11,8.79153256 12.7968389,7 15.0067478,7 L44,7 L60,7 L71.0453849,7 C73.2582506,7 75.0521327,8.78836328 75.0521327,10.9999151 L75.0521327,22 L75.0521327,66.7500849 C75.0521327,68.959177 73.2552938,70.75 71.0453849,70.75 L15.0067478,70.75 C12.7938821,70.75 11,68.9521437 11,66.7577188 L11,57.6220703" id="path-1"></path>
        <mask id="mask-2" maskContentUnits="userSpaceOnUse" maskUnits="objectBoundingBox" x="0" y="0" width="64.0521327" height="63.75" fill="white">
            <use xlink:href="#path-1"></use>
        </mask>
        <path d="M0,32.0201705 L8.5,24.5201705 L18,23.0201705 C18,23.0201705 26.8244023,18.6689751 27,19.0201705 C27.1755977,19.3713659 29,23 26,26.5 C23,30 16.5,30.5 16.5,30.5 L15.5,32.0201705 L43.5,32.0201705 L47,35.0201705 L46,38.0201705 L48.5,38.0201705 L52,42.0201705 L49.5,45.0201705 L51.5,48.5201705 L47.5,52.0201705 L46,52.0201705 L46,55.0201705 L42.5,58.0201705 L6,58.0201705" id="path-3"></path>
        <mask id="mask-4" maskContentUnits="userSpaceOnUse" maskUnits="objectBoundingBox" x="0" y="0" width="52" height="39.0201705" fill="white">
            <use xlink:href="#path-3"></use>
        </mask>
        <polyline id="path-5" points="195 68 195 100 113 100 113 68"></polyline>
        <mask id="mask-6" maskContentUnits="userSpaceOnUse" maskUnits="objectBoundingBox" x="0" y="0" width="82" height="32" fill="white">
            <use xlink:href="#path-5"></use>
        </mask>
        <polygon id="path-7" points="141 65 167 65 167 100 141 100"></polygon>
        <mask id="mask-8" maskContentUnits="userSpaceOnUse" maskUnits="objectBoundingBox" x="0" y="0" width="26" height="35" fill="white">
            <use xlink:href="#path-7"></use>
        </mask>
        <rect id="path-9" x="175" y="77" width="10" height="10"></rect>
        <mask id="mask-10" maskContentUnits="userSpaceOnUse" maskUnits="objectBoundingBox" x="0" y="0" width="10" height="10" fill="white">
            <use xlink:href="#path-9"></use>
        </mask>
        <rect id="path-11" x="123" y="77" width="10" height="10"></rect>
        <mask id="mask-12" maskContentUnits="userSpaceOnUse" maskUnits="objectBoundingBox" x="0" y="0" width="10" height="10" fill="white">
            <use xlink:href="#path-11"></use>
        </mask>
        <rect id="path-13" x="117" y="41" width="73" height="2"></rect>
        <mask id="mask-14" maskContentUnits="userSpaceOnUse" maskUnits="objectBoundingBox" x="0" y="0" width="73" height="2" fill="white">
            <use xlink:href="#path-13"></use>
        </mask>
        <rect id="path-15" x="176" y="36" width="8" height="2"></rect>
        <mask id="mask-16" maskContentUnits="userSpaceOnUse" maskUnits="objectBoundingBox" x="0" y="0" width="8" height="2" fill="white">
            <use xlink:href="#path-15"></use>
        </mask>
        <rect id="path-17" x="115" y="46" width="78" height="2"></rect>
        <mask id="mask-18" maskContentUnits="userSpaceOnUse" maskUnits="objectBoundingBox" x="0" y="0" width="78" height="2" fill="white">
            <use xlink:href="#path-17"></use>
        </mask>
        <rect id="path-19" x="113" y="51" width="82" height="2"></rect>
        <mask id="mask-20" maskContentUnits="userSpaceOnUse" maskUnits="objectBoundingBox" x="0" y="0" width="82" height="2" fill="white">
            <use xlink:href="#path-19"></use>
        </mask>
        <rect id="path-21" x="111" y="56" width="86" height="2"></rect>
        <mask id="mask-22" maskContentUnits="userSpaceOnUse" maskUnits="objectBoundingBox" x="0" y="0" width="86" height="2" fill="white">
            <use xlink:href="#path-21"></use>
        </mask>
        <rect id="path-23" x="109" y="61" width="90" height="2"></rect>
        <mask id="mask-24" maskContentUnits="userSpaceOnUse" maskUnits="objectBoundingBox" x="0" y="0" width="90" height="2" fill="white">
            <use xlink:href="#path-23"></use>
        </mask>
        <rect id="path-25" x="117" y="68" width="24" height="2"></rect>
        <mask id="mask-26" maskContentUnits="userSpaceOnUse" maskUnits="objectBoundingBox" x="0" y="0" width="24" height="2" fill="white">
            <use xlink:href="#path-25"></use>
        </mask>
        <rect id="path-27" x="167" y="68" width="24" height="2"></rect>
        <mask id="mask-28" maskContentUnits="userSpaceOnUse" maskUnits="objectBoundingBox" x="0" y="0" width="24" height="2" fill="white">
            <use xlink:href="#path-27"></use>
        </mask>
        <rect id="path-29" x="149" y="75" width="10" height="20"></rect>
        <mask id="mask-30" maskContentUnits="userSpaceOnUse" maskUnits="objectBoundingBox" x="0" y="0" width="10" height="20" fill="white">
            <use xlink:href="#path-29"></use>
        </mask>
        <rect id="path-31" x="108" y="93" width="92" height="7"></rect>
        <mask id="mask-32" maskContentUnits="userSpaceOnUse" maskUnits="objectBoundingBox" x="0" y="0" width="92" height="7" fill="white">
            <use xlink:href="#path-31"></use>
        </mask>
        <polyline id="path-33" points="194 32 194 64 112 64 112 32"></polyline>
        <mask id="mask-34" maskContentUnits="userSpaceOnUse" maskUnits="objectBoundingBox" x="0" y="0" width="82" height="32" fill="white">
            <use xlink:href="#path-33"></use>
        </mask>
        <polygon id="path-35" points="140 29 166 29 166 64 140 64"></polygon>
        <mask id="mask-36" maskContentUnits="userSpaceOnUse" maskUnits="objectBoundingBox" x="0" y="0" width="26" height="35" fill="white">
            <use xlink:href="#path-35"></use>
        </mask>
        <rect id="path-37" x="174" y="41" width="10" height="10"></rect>
        <mask id="mask-38" maskContentUnits="userSpaceOnUse" maskUnits="objectBoundingBox" x="0" y="0" width="10" height="10" fill="white">
            <use xlink:href="#path-37"></use>
        </mask>
        <rect id="path-39" x="122" y="41" width="10" height="10"></rect>
        <mask id="mask-40" maskContentUnits="userSpaceOnUse" maskUnits="objectBoundingBox" x="0" y="0" width="10" height="10" fill="white">
            <use xlink:href="#path-39"></use>
        </mask>
        <rect id="path-41" x="116" y="5" width="73" height="2"></rect>
        <mask id="mask-42" maskContentUnits="userSpaceOnUse" maskUnits="objectBoundingBox" x="0" y="0" width="73" height="2" fill="white">
            <use xlink:href="#path-41"></use>
        </mask>
        <rect id="path-43" x="175" y="0" width="8" height="2"></rect>
        <mask id="mask-44" maskContentUnits="userSpaceOnUse" maskUnits="objectBoundingBox" x="0" y="0" width="8" height="2" fill="white">
            <use xlink:href="#path-43"></use>
        </mask>
        <rect id="path-45" x="114" y="10" width="78" height="2"></rect>
        <mask id="mask-46" maskContentUnits="userSpaceOnUse" maskUnits="objectBoundingBox" x="0" y="0" width="78" height="2" fill="white">
            <use xlink:href="#path-45"></use>
        </mask>
        <rect id="path-47" x="112" y="15" width="82" height="2"></rect>
        <mask id="mask-48" maskContentUnits="userSpaceOnUse" maskUnits="objectBoundingBox" x="0" y="0" width="82" height="2" fill="white">
            <use xlink:href="#path-47"></use>
        </mask>
        <rect id="path-49" x="110" y="20" width="86" height="2"></rect>
        <mask id="mask-50" maskContentUnits="userSpaceOnUse" maskUnits="objectBoundingBox" x="0" y="0" width="86" height="2" fill="white">
            <use xlink:href="#path-49"></use>
        </mask>
        <rect id="path-51" x="108" y="25" width="90" height="2"></rect>
        <mask id="mask-52" maskContentUnits="userSpaceOnUse" maskUnits="objectBoundingBox" x="0" y="0" width="90" height="2" fill="white">
            <use xlink:href="#path-51"></use>
        </mask>
        <rect id="path-53" x="116" y="32" width="24" height="2"></rect>
        <mask id="mask-54" maskContentUnits="userSpaceOnUse" maskUnits="objectBoundingBox" x="0" y="0" width="24" height="2" fill="white">
            <use xlink:href="#path-53"></use>
        </mask>
        <rect id="path-55" x="166" y="32" width="24" height="2"></rect>
        <mask id="mask-56" maskContentUnits="userSpaceOnUse" maskUnits="objectBoundingBox" x="0" y="0" width="24" height="2" fill="white">
            <use xlink:href="#path-55"></use>
        </mask>
        <rect id="path-57" x="148" y="39" width="10" height="20"></rect>
        <mask id="mask-58" maskContentUnits="userSpaceOnUse" maskUnits="objectBoundingBox" x="0" y="0" width="10" height="20" fill="white">
            <use xlink:href="#path-57"></use>
        </mask>
        <rect id="path-59" x="107" y="57" width="92" height="7"></rect>
        <mask id="mask-60" maskContentUnits="userSpaceOnUse" maskUnits="objectBoundingBox" x="0" y="0" width="92" height="7" fill="white">
            <use xlink:href="#path-59"></use>
        </mask>
    </defs>
    <g id="Symbols" stroke="none" stroke-width="1" fill="none" fill-rule="evenodd">
        <g id="Icon-We-wish" transform="translate(0.000000, 1.000000)">
            <g id="Group-8">
                <g>
                    <use id="Rectangle-23" stroke="#384773" mask="url(#mask-2)" stroke-width="4" fill="#FFFFFF" xlink:href="#path-1"></use>
                    <polygon id="Triangle-2" fill="#384773" points="59.5 15 67 28 52 28"></polygon>
                    <rect id="Rectangle-25" fill="#384773" x="46" y="62" width="22" height="3"></rect>
                    <rect id="Rectangle-25-Copy" fill="#384773" x="56" y="57" width="12" height="3"></rect>
                    <polygon id="Path-4" fill="#A6998A" points="13 58 13 66.5 43 58"></polygon>
                    <use id="Rectangle-27" stroke="#384773" mask="url(#mask-4)" stroke-width="4" fill="#FFFFFF" xlink:href="#path-3"></use>
                    <rect id="Rectangle-26" fill="#D8D8D8" x="25" y="34" width="7" height="22"></rect>
                    <rect id="Rectangle-22" fill="#384773" x="30" y="38" width="14" height="2"></rect>
                    <rect id="Rectangle-22-Copy-3" fill="#384773" x="3" y="40" width="11" height="2"></rect>
                    <rect id="Rectangle-22-Copy-5" fill="#384773" x="10" y="32" width="11" height="2"></rect>
                    <rect id="Rectangle-22-Copy-4" fill="#384773" x="4" y="47" width="12" height="2"></rect>
                    <rect id="Rectangle-22-Copy" fill="#384773" x="30" y="44" width="19" height="2"></rect>
                    <rect id="Rectangle-22-Copy-2" fill="#384773" x="27" y="50" width="19" height="2"></rect>
                    <path d="M1,99 L219.036694,99" id="Line-Copy-6" stroke="#384773" stroke-width="2" stroke-linecap="square"></path>
                    <use id="Rectangle-28" stroke="#384773" mask="url(#mask-6)" stroke-width="4" xlink:href="#path-5"></use>
                    <path d="M111,67.0033061 L102,67.0033061 L114,37 L173,37 M187,37 L194,37 L206,67.0033061 L197.088379,67.0033061 M191,67.0033061 L117,67.0033061" id="Triangle-3" stroke="#384773" stroke-width="2" fill="#FFFFFF"></path>
                    <use id="Rectangle-29" stroke="#384773" mask="url(#mask-8)" stroke-width="4" fill="#FFFFFF" xlink:href="#path-7"></use>
                    <use id="Rectangle-30-Copy" stroke="#384773" mask="url(#mask-10)" stroke-width="4" fill="#FFFFFF" xlink:href="#path-9"></use>
                    <polygon id="Triangle-5" fill="#ECEEF1" points="141 67 141 98 129 98"></polygon>
                    <use id="Rectangle-30" stroke="#384773" mask="url(#mask-12)" stroke-width="4" fill="#FFFFFF" xlink:href="#path-11"></use>
                    <use id="Rectangle-31" stroke="#384773" mask="url(#mask-14)" stroke-width="2" fill="#D8D8D8" xlink:href="#path-13"></use>
                    <use id="Rectangle-31-Copy-5" stroke="#384773" mask="url(#mask-16)" stroke-width="2" fill="#D8D8D8" xlink:href="#path-15"></use>
                    <rect id="Rectangle-31-Copy-6" fill="#A6998A" x="177" y="79" width="6" height="2"></rect>
                    <rect id="Rectangle-31-Copy-7" fill="#A6998A" x="125" y="79" width="6" height="2"></rect>
                    <use id="Rectangle-31-Copy" stroke="#384773" mask="url(#mask-18)" stroke-width="2" fill="#D8D8D8" xlink:href="#path-17"></use>
                    <use id="Rectangle-31-Copy-2" stroke="#384773" mask="url(#mask-20)" stroke-width="2" fill="#D8D8D8" xlink:href="#path-19"></use>
                    <use id="Rectangle-31-Copy-3" stroke="#384773" mask="url(#mask-22)" stroke-width="2" fill="#D8D8D8" xlink:href="#path-21"></use>
                    <use id="Rectangle-31-Copy-4" stroke="#384773" mask="url(#mask-24)" stroke-width="2" fill="#D8D8D8" xlink:href="#path-23"></use>
                    <use id="Rectangle-32" stroke="#A6998A" mask="url(#mask-26)" stroke-width="2" fill="#D8D8D8" xlink:href="#path-25"></use>
                    <use id="Rectangle-32-Copy" stroke="#A6998A" mask="url(#mask-28)" stroke-width="2" fill="#D8D8D8" xlink:href="#path-27"></use>
                    <polygon id="Triangle-4" stroke="#384773" stroke-width="2" fill="#FFFFFF" points="154 50 170 67 138 67"></polygon>
                    <polygon id="Triangle-4-Copy" stroke="#384773" stroke-width="2" fill="#ECEEF1" points="154 55 165 67 156.5 67 143 67"></polygon>
                    <path d="M67.0081126,6.80977002 L67.9132233,6.65876287 C70.3470485,6.25328071 72.2532807,4.34704846 72.6587629,1.91415546 L72.80977,1.00811256 C73.0334843,-0.336037519 74.9658166,-0.336037519 75.190463,1.00811256 L75.340538,1.91415546 C75.7469523,4.34704846 77.6531846,6.25328071 80.0860776,6.65876287 L80.9911883,6.80977002 C82.3362706,7.03348432 82.3362706,8.96581657 80.9911883,9.19046301 L80.0860776,9.34147016 C77.6531846,9.74695233 75.7469523,11.6531846 75.340538,14.0860776 L75.190463,14.9921205 C74.9658166,16.3362706 73.0334843,16.3362706 72.80977,14.9921205 L72.6587629,14.0860776 C72.2532807,11.6531846 70.3470485,9.74695233 67.9132233,9.34147016 L67.0081126,9.19046301 C65.6639625,8.96581657 65.6639625,7.03348432 67.0081126,6.80977002 Z" id="Page-1-Copy-12" stroke="#384773" stroke-width="2" fill="#FFFFFF"></path>
                    <use id="Rectangle-33" stroke="#384773" mask="url(#mask-30)" stroke-width="4" fill="#FFFFFF" xlink:href="#path-29"></use>
                    <use id="Rectangle-34" stroke="#384773" mask="url(#mask-32)" stroke-width="4" fill="#FFFFFF" xlink:href="#path-31"></use>
                </g>
                <g transform="translate(1.000000, 36.000000)">
                    <path d="M0,63 L218.036694,63" id="Line-Copy-6" stroke="#384773" stroke-width="2" stroke-linecap="square"></path>
                    <use id="Rectangle-28" stroke="#384773" mask="url(#mask-34)" stroke-width="4" xlink:href="#path-33"></use>
                    <path d="M110,31.0033061 L101,31.0033061 L113,1 L172,1 M186,1 L193,1 L205,31.0033061 L196.088379,31.0033061 M190,31.0033061 L116,31.0033061" id="Triangle-3" stroke="#384773" stroke-width="2" fill="#FFFFFF"></path>
                    <use id="Rectangle-29" stroke="#384773" mask="url(#mask-36)" stroke-width="4" fill="#FFFFFF" xlink:href="#path-35"></use>
                    <use id="Rectangle-30-Copy" stroke="#384773" mask="url(#mask-38)" stroke-width="4" fill="#FFFFFF" xlink:href="#path-37"></use>
                    <polygon id="Triangle-5" fill="#ECEEF1" points="140 31 140 62 128 62"></polygon>
                    <use id="Rectangle-30" stroke="#384773" mask="url(#mask-40)" stroke-width="4" fill="#FFFFFF" xlink:href="#path-39"></use>
                    <use id="Rectangle-31" stroke="#384773" mask="url(#mask-42)" stroke-width="2" fill="#D8D8D8" xlink:href="#path-41"></use>
                    <use id="Rectangle-31-Copy-5" stroke="#384773" mask="url(#mask-44)" stroke-width="2" fill="#D8D8D8" xlink:href="#path-43"></use>
                    <rect id="Rectangle-31-Copy-6" fill="#A6998A" x="176" y="43" width="6" height="2"></rect>
                    <rect id="Rectangle-31-Copy-7" fill="#A6998A" x="124" y="43" width="6" height="2"></rect>
                    <use id="Rectangle-31-Copy" stroke="#384773" mask="url(#mask-46)" stroke-width="2" fill="#D8D8D8" xlink:href="#path-45"></use>
                    <use id="Rectangle-31-Copy-2" stroke="#384773" mask="url(#mask-48)" stroke-width="2" fill="#D8D8D8" xlink:href="#path-47"></use>
                    <use id="Rectangle-31-Copy-3" stroke="#384773" mask="url(#mask-50)" stroke-width="2" fill="#D8D8D8" xlink:href="#path-49"></use>
                    <use id="Rectangle-31-Copy-4" stroke="#384773" mask="url(#mask-52)" stroke-width="2" fill="#D8D8D8" xlink:href="#path-51"></use>
                    <use id="Rectangle-32" stroke="#A6998A" mask="url(#mask-54)" stroke-width="2" fill="#D8D8D8" xlink:href="#path-53"></use>
                    <use id="Rectangle-32-Copy" stroke="#A6998A" mask="url(#mask-56)" stroke-width="2" fill="#D8D8D8" xlink:href="#path-55"></use>
                    <polygon id="Triangle-4" stroke="#384773" stroke-width="2" fill="#FFFFFF" points="153 14 169 31 137 31"></polygon>
                    <polygon id="Triangle-4-Copy" stroke="#384773" stroke-width="2" fill="#ECEEF1" points="153 19 164 31 155.5 31 142 31"></polygon>
                    <use id="Rectangle-33" stroke="#384773" mask="url(#mask-58)" stroke-width="4" fill="#FFFFFF" xlink:href="#path-57"></use>
                    <use id="Rectangle-34" stroke="#384773" mask="url(#mask-60)" stroke-width="4" fill="#FFFFFF" xlink:href="#path-59"></use>
                </g>
            </g>
        </g>
    </g>
</svg>