<?xml version="1.0" encoding="UTF-8" standalone="no"?>
<svg width="127px" height="98px" viewBox="0 0 127 98" version="1.1" xmlns="http://www.w3.org/2000/svg" xmlns:xlink="http://www.w3.org/1999/xlink">
    <!-- Generator: Sketch 41 (35326) - http://www.bohemiancoding.com/sketch -->
    <title>Icon Register2x</title>
    <desc>Created with Sketch.</desc>
    <defs>
        <path d="M45.5761536,19 L122.962179,19 C125.192206,19 127,20.798457 127,22.9989555 L127,94.0010445 C127,96.2096066 125.193235,98 122.963382,98 L23.036618,98 C20.8072554,98 19,96.2044331 19,94.0055936 L19,46.2734375" id="path-1"></path>
        <mask id="mask-2" maskContentUnits="userSpaceOnUse" maskUnits="objectBoundingBox" x="0" y="0" width="108" height="79" fill="white">
            <use xlink:href="#path-1"></use>
        </mask>
    </defs>
    <g id="Symbols" stroke="none" stroke-width="1" fill="none" fill-rule="evenodd">
        <g id="Icon-Register">
            <g>
                <use id="Rectangle-2" stroke="#384773" mask="url(#mask-2)" stroke-width="4" xlink:href="#path-1"></use>
                <circle id="Oval-3-Copy-7" fill="#7ED321" cx="20" cy="20" r="20"></circle>
                <text id="1" font-family="PFSquareSansPro-Medium, PF Square Sans Pro" font-size="18" font-weight="400" letter-spacing="0.600000024" fill="#FFFFFF">
                    <tspan x="15" y="26">1</tspan>
                </text>
                <path d="M48,45 L97,45" id="Path-16" stroke="#384773" stroke-width="2"></path>
                <path d="M48,57 L97,57" id="Path-16-Copy" stroke="#384773" stroke-width="2"></path>
                <rect id="Rectangle-8" fill="#384773" x="67" y="67" width="30" height="9"></rect>
                <path d="M103.876863,34.7464505 C102.969954,34.1215607 102.725186,34.3604998 103.337747,35.2916711 L107.381772,41.4391118 C107.990935,42.3651187 108.962556,42.3513213 109.541967,41.4242629 L116.802551,29.8073283 C117.386431,28.8731206 117.203631,28.7309155 116.405673,29.4790011 L109.313845,36.1275901 C108.510776,36.8804677 107.124389,36.9841013 106.217655,36.3593324 L103.876863,34.7464505 Z" id="Path-17" fill="#A6998A"></path>
            </g>
        </g>
    </g>
</svg>