<?xml version="1.0" encoding="UTF-8" standalone="no"?>
<svg width="127px" height="98px" viewBox="0 0 127 98" version="1.1" xmlns="http://www.w3.org/2000/svg" xmlns:xlink="http://www.w3.org/1999/xlink">
    <!-- Generator: Sketch 41 (35326) - http://www.bohemiancoding.com/sketch -->
    <title>Icon Download2x</title>
    <desc>Created with Sketch.</desc>
    <defs>
        <path d="M45.5761536,19 L122.962179,19 C125.192206,19 127,20.798457 127,22.9989555 L127,94.0010445 C127,96.2096066 125.193235,98 122.963382,98 L23.036618,98 C20.8072554,98 19,96.2044331 19,94.0055936 L19,46.2734375" id="path-1"></path>
        <mask id="mask-2" maskContentUnits="userSpaceOnUse" maskUnits="objectBoundingBox" x="0" y="0" width="108" height="79" fill="white">
            <use xlink:href="#path-1"></use>
        </mask>
        <rect id="path-3" x="49" y="35" width="48" height="48" rx="11"></rect>
        <filter x="-50%" y="-50%" width="200%" height="200%" filterUnits="objectBoundingBox" id="filter-4">
            <feOffset dx="0" dy="4" in="SourceAlpha" result="shadowOffsetInner1"></feOffset>
            <feComposite in="shadowOffsetInner1" in2="SourceAlpha" operator="arithmetic" k2="-1" k3="1" result="shadowInnerInner1"></feComposite>
            <feColorMatrix values="0 0 0 0 1   0 0 0 0 1   0 0 0 0 1  0 0 0 1 0" type="matrix" in="shadowInnerInner1"></feColorMatrix>
        </filter>
        <mask id="mask-5" maskContentUnits="userSpaceOnUse" maskUnits="objectBoundingBox" x="0" y="0" width="48" height="48" fill="white">
            <use xlink:href="#path-3"></use>
        </mask>
    </defs>
    <g id="Symbols" stroke="none" stroke-width="1" fill="none" fill-rule="evenodd">
        <g id="Icon-Download">
            <g>
                <use id="Rectangle-2-Copy-3" stroke="#384773" mask="url(#mask-2)" stroke-width="4" xlink:href="#path-1"></use>
                <circle id="Oval-3-Copy-9" fill="#7ED321" cx="20" cy="20" r="20"></circle>
                <text id="4" font-family="PFSquareSansPro-Medium, PF Square Sans Pro" font-size="18" font-weight="400" letter-spacing="0.600000024" fill="#FFFFFF">
                    <tspan x="15" y="26">4</tspan>
                </text>
                <g id="Rectangle-9">
                    <use fill="#D8D8D8" fill-rule="evenodd" xlink:href="#path-3"></use>
                    <use fill="black" fill-opacity="1" filter="url(#filter-4)" xlink:href="#path-3"></use>
                    <use stroke="#384773" mask="url(#mask-5)" stroke-width="4" xlink:href="#path-3"></use>
                </g>
                <g id="Page-1" transform="translate(63.000000, 51.000000)" fill="#384773">
                    <path d="M18.774375,0 L0.201875,0 C0.0903727083,0 0,0.0928089431 0,0.207317073 L0,2.69512195 C0,2.80963008 0.0903727083,2.90243902 0.201875,2.90243902 L17.36125,2.90243902 L17.36125,14.097561 L2.96083333,14.097561 C2.84933104,14.097561 2.75895833,14.1903699 2.75895833,14.304878 L2.75895833,16.7926829 C2.75895833,16.9071911 2.84933104,17 2.96083333,17 L18.774375,17 C19.5548238,17 20.1875,16.3502683 20.1875,15.5487805 L20.1875,1.45121951 C20.1875,0.649731707 19.5548238,0 18.774375,0 Z M5.92166667,7.39430894 L5.92166667,4.90650407 C5.92166667,4.79199593 5.83129396,4.69918699 5.71979167,4.69918699 L1.07666667,4.69918699 C0.965164375,4.69918699 0.874791667,4.79199593 0.874791667,4.90650407 L0.874791667,7.39430894 C0.874791667,7.50881707 0.965164375,7.60162602 1.07666667,7.60162602 L5.71979167,7.60162602 C5.83129396,7.60162602 5.92166667,7.50881707 5.92166667,7.39430894 Z M5.92166667,12.0934959 L5.92166667,9.60569106 C5.92166667,9.49118293 5.83129396,9.39837398 5.71979167,9.39837398 L2.01875,9.39837398 C1.90724771,9.39837398 1.816875,9.49118293 1.816875,9.60569106 L1.816875,12.0934959 C1.816875,12.2080041 1.90724771,12.300813 2.01875,12.300813 L5.71979167,12.300813 C5.83129396,12.300813 5.92166667,12.2080041 5.92166667,12.0934959 Z" id="Combined-Shape"></path>
                </g>
                <circle id="Oval-4-Copy-2" fill="#384773" cx="92" cy="76" r="10"></circle>
                <path d="M91,77.0948531 L91,71 L93,71 L93,76.994348 L95.4588141,74.5355339 L96.8730277,75.9497475 L91.9497475,80.8730277 L91.229407,80.1526872 L87,75.9232802 L88.4142136,74.5090666 L91,77.0948531 Z" id="Combined-Shape" fill="#FFFFFF"></path>
            </g>
        </g>
    </g>
</svg>