<?xml version="1.0" encoding="UTF-8" standalone="no"?>
<svg width="18px" height="18px" viewBox="0 0 18 18" version="1.1" xmlns="http://www.w3.org/2000/svg" xmlns:xlink="http://www.w3.org/1999/xlink">
    <!-- Generator: Sketch 41 (35326) - http://www.bohemiancoding.com/sketch -->
    <title>Page 1 Copy 102x</title>
    <desc>Created with Sketch.</desc>
    <defs></defs>
    <g id="Symbols" stroke="none" stroke-width="1" fill="none" fill-rule="evenodd">
        <g id="Page-1-Copy-10" transform="translate(1.000000, 1.000000)" stroke-width="2" stroke="#384773" fill="#FFFFFF">
            <path d="M1.00811256,6.80977002 L1.91322332,6.65876287 C4.34704846,6.25328071 6.25328071,4.34704846 6.65876287,1.91415546 L6.80977002,1.00811256 C7.03348432,-0.336037519 8.96581657,-0.336037519 9.19046301,1.00811256 L9.34053802,1.91415546 C9.74695233,4.34704846 11.6531846,6.25328071 14.0860776,6.65876287 L14.9911883,6.80977002 C16.3362706,7.03348432 16.3362706,8.96581657 14.9911883,9.19046301 L14.0860776,9.34147016 C11.6531846,9.74695233 9.74695233,11.6531846 9.34053802,14.0860776 L9.19046301,14.9921205 C8.96581657,16.3362706 7.03348432,16.3362706 6.80977002,14.9921205 L6.65876287,14.0860776 C6.25328071,11.6531846 4.34704846,9.74695233 1.91322332,9.34147016 L1.00811256,9.19046301 C-0.336037519,8.96581657 -0.336037519,7.03348432 1.00811256,6.80977002 Z"></path>
        </g>
    </g>
</svg>