<?xml version="1.0" encoding="UTF-8" standalone="no"?>
<svg width="20px" height="20px" viewBox="0 0 20 20" version="1.1" xmlns="http://www.w3.org/2000/svg" xmlns:xlink="http://www.w3.org/1999/xlink">
    <!-- Generator: Sketch 41 (35326) - http://www.bohemiancoding.com/sketch -->
    <title>+2x</title>
    <desc>Created with Sketch.</desc>
    <defs></defs>
    <g id="Symbols" stroke="none" stroke-width="1" fill="none" fill-rule="evenodd" opacity="0.154442631">
        <g id="+" fill="#FFFFFF">
            <g>
                <path d="M18.6666667,11.6666667 L1.33333333,11.6666667 C0.6,11.6666667 0,11.0666667 0,10.3333333 L0,10.3333333 C0,9.6 0.6,9 1.33333333,9 L18.6666667,9 C19.4,9 20,9.6 20,10.3333333 L20,10.3333333 C20,11.0666667 19.4,11.6666667 18.6666667,11.6666667" id="Fill-1"></path>
                <path d="M8.73333333,18.4333333 L8.73333333,1.96666667 C8.73333333,1.27 9.30333333,0.7 10,0.7 L10,0.7 C10.6966667,0.7 11.2666667,1.27 11.2666667,1.96666667 L11.2666667,18.4333333 C11.2666667,19.13 10.6966667,19.7 10,19.7 L10,19.7 C9.30333333,19.7 8.73333333,19.13 8.73333333,18.4333333" id="Fill-3"></path>
            </g>
        </g>
    </g>
</svg>