<?xml version="1.0" encoding="UTF-8" standalone="no"?>
<svg width="114px" height="114px" viewBox="0 0 114 114" version="1.1" xmlns="http://www.w3.org/2000/svg" xmlns:xlink="http://www.w3.org/1999/xlink">
    <!-- Generator: Sketch 41 (35326) - http://www.bohemiancoding.com/sketch -->
    <title>Icon Return back to the2x</title>
    <desc>Created with Sketch.</desc>
    <defs>
        <path d="M16,33 C16,32.4477153 16.4509752,32 16.990778,32 L21.009222,32 C21.5564136,32 22,32.4438648 22,33 L22,33 C22,33.5522847 21.5490248,34 21.009222,34 L16.990778,34 C16.4435864,34 16,33.5561352 16,33 L16,33 Z" id="path-1"></path>
    </defs>
    <g id="Symbols" stroke="none" stroke-width="1" fill="none" fill-rule="evenodd">
        <g id="Icon-Return-back-to-the">
            <g>
                <ellipse id="Oval-12-Copy-5" fill="#EDEEF2" cx="57" cy="57" rx="57" ry="57"></ellipse>
                <g id="icon-coordinator-copy" transform="translate(42.000000, 27.000000)">
                    <ellipse id="Oval-8" stroke="#384773" stroke-width="2" fill="#A6998A" cx="6.41706194" cy="24.5" rx="6.41706194" ry="6.5"></ellipse>
                    <ellipse id="Oval-8-Copy" stroke="#384773" stroke-width="2" fill="#A6998A" cx="29.4170619" cy="24.5" rx="6.41706194" ry="6.5"></ellipse>
                    <path d="M32.9,19.7348685 C32.9,1.72169183 23,0.147875324 17.95,0.00693328087 C12.9,-0.134008762 2,1.72169183 2,19.7348685" id="Oval-6-Copy" stroke="#384773" stroke-width="2"></path>
                    <path d="M18,38.3916016 C23.0761534,38.3916016 29.8383789,33.471516 29.8383789,20.842195 C29.8383789,8.21287398 24.5381561,5.60839844 18,5.60839844 C11.4618439,5.60839844 6.16162109,8.21287398 6.16162109,20.842195 C6.16162109,33.471516 12.9238466,38.3916016 18,38.3916016 Z" id="Oval-6" stroke="#384773" stroke-width="2" fill="#FFFFFF"></path>
                    <path d="M17.8106779,5.60839844 C29.0130956,5.60839844 28.6379137,12.6010694 29.0130956,14.4769791 C29.3882775,16.3528888 29.479863,23.3455598 29.479863,23.3455598 C29.479863,23.3455598 26.6792586,21.4784902 26.6792586,18.2111184 C26.6792586,14.9437465 25.7457238,15.4105139 25.7457238,15.4105139 C25.7457238,15.4105139 25.2789564,17.744351 20.6112823,19.1446532 C15.9436083,20.5449554 9.40886459,17.744351 9.40886459,17.744351 C9.40886459,17.744351 10.8091668,17.2775836 11.7427016,16.3440488 C12.6762364,15.4105139 15.0100734,15.4105139 15.0100734,15.4105139 C13.1430038,14.9437465 11.2759342,15.4105139 9.87563199,16.3440488 C8.47532978,17.2775836 7.07502756,17.744351 7.07502756,17.744351 C7.07502756,17.744351 6.60826016,5.60839844 17.8106779,5.60839844 Z" id="Oval-7" fill="#384773"></path>
                    <use id="Rectangle-17" fill="#384773" xlink:href="#path-1"></use>
                    <path d="M29.0118782,17 C29.0118782,17 29.922049,26.1324201 26.7364514,29.7853881 C23.5508537,33.4383562 19,32.9817352 19,32.9817352" id="Path-25" stroke="#384773"></path>
                </g>
                <g id="Group-7" transform="translate(20.000000, 56.000000)">
                    <polygon id="Rectangle-16-Copy-11" stroke="#384773" stroke-width="2" fill="#FFFFFF" points="0 -0.000276729926 35 -0.000276729926 35 19 0 19"></polygon>
                    <rect id="Rectangle-20-Copy-4" fill="#A6998A" x="28" y="1.05555556" width="6" height="17"></rect>
                    <rect id="Rectangle-20-Copy-6" fill="#A6998A" x="1" y="1.05555556" width="6" height="17"></rect>
                </g>
                <circle id="Oval-13-Copy-2" fill="#733A26" cx="37.5" cy="65.5" r="3.5"></circle>
                <polyline id="Rectangle-21-Copy-4" stroke="#384773" points="30 72 23 72 23 59 30 59"></polyline>
                <path d="M32,59 L43,59" id="Rectangle-21-Copy-7" stroke="#384773"></path>
                <path d="M32,72 L43,72" id="Rectangle-21-Copy-8" stroke="#384773"></path>
                <polyline id="Rectangle-21-Copy-6" stroke="#384773" transform="translate(48.500000, 65.500000) scale(-1, 1) translate(-48.500000, -65.500000) " points="52 72 45 72 45 59 52 59"></polyline>
            </g>
        </g>
    </g>
</svg>