<?xml version="1.0" encoding="UTF-8" standalone="no"?>
<svg width="127px" height="98px" viewBox="0 0 127 98" version="1.1" xmlns="http://www.w3.org/2000/svg" xmlns:xlink="http://www.w3.org/1999/xlink">
    <!-- Generator: Sketch 41 (35326) - http://www.bohemiancoding.com/sketch -->
    <title>Icon choose an order2x</title>
    <desc>Created with Sketch.</desc>
    <defs>
        <path d="M45.5761536,19 L122.962179,19 C125.192206,19 127,20.798457 127,22.9989555 L127,94.0010445 C127,96.2096066 125.193235,98 122.963382,98 L23.036618,98 C20.8072554,98 19,96.2044331 19,94.0055936 L19,46.2734375" id="path-1"></path>
        <mask id="mask-2" maskContentUnits="userSpaceOnUse" maskUnits="objectBoundingBox" x="0" y="0" width="108" height="79" fill="white">
            <use xlink:href="#path-1"></use>
        </mask>
        <rect id="path-3" x="49" y="39" width="49" height="11"></rect>
        <mask id="mask-4" maskContentUnits="userSpaceOnUse" maskUnits="objectBoundingBox" x="0" y="0" width="49" height="11" fill="white">
            <use xlink:href="#path-3"></use>
        </mask>
        <rect id="path-5" x="49" y="67" width="49" height="11"></rect>
        <mask id="mask-6" maskContentUnits="userSpaceOnUse" maskUnits="objectBoundingBox" x="0" y="0" width="49" height="11" fill="white">
            <use xlink:href="#path-5"></use>
        </mask>
    </defs>
    <g id="Symbols" stroke="none" stroke-width="1" fill="none" fill-rule="evenodd">
        <g id="Icon-choose-an-order">
            <g>
                <use id="Rectangle-2-Copy-4" stroke="#384773" mask="url(#mask-2)" stroke-width="4" xlink:href="#path-1"></use>
                <circle id="Oval-3-Copy-10" fill="#7ED321" cx="20" cy="20" r="20"></circle>
                <text id="5" font-family="PFSquareSansPro-Medium, PF Square Sans Pro" font-size="18" font-weight="400" letter-spacing="0.600000024" fill="#FFFFFF">
                    <tspan x="15" y="26">5</tspan>
                </text>
                <rect id="Rectangle-11-Copy" fill="#384773" x="45" y="52" width="57" height="13"></rect>
                <use id="Rectangle-11" stroke="#384773" mask="url(#mask-4)" stroke-width="4" fill="#EDEEF2" xlink:href="#path-3"></use>
                <use id="Rectangle-11-Copy-2" stroke="#384773" mask="url(#mask-6)" stroke-width="4" fill="#EDEEF2" xlink:href="#path-5"></use>
                <polyline id="Path-23" stroke="#384773" stroke-width="2" fill="#A6998A" points="71 70 67 75 69.5 83"></polyline>
                <circle id="Oval-5" stroke="#FFFFFF" cx="73" cy="59" r="5"></circle>
                <polyline id="Path-22" stroke="#384773" stroke-width="2" fill="#FFFFFF" points="71 79 71 58.5 73 57 75 58.5 75 69 78 67.5 85 73 85 88.5"></polyline>
                <path d="M80,79 L80,86" id="Path-24" stroke="#384773" stroke-width="2"></path>
                <path d="M76,79 L76,84" id="Path-24-Copy" stroke="#384773" stroke-width="2"></path>
            </g>
        </g>
    </g>
</svg>