<?xml version="1.0" encoding="UTF-8" standalone="no"?>
<svg width="127px" height="98px" viewBox="0 0 127 98" version="1.1" xmlns="http://www.w3.org/2000/svg" xmlns:xlink="http://www.w3.org/1999/xlink">
    <!-- Generator: Sketch 41 (35326) - http://www.bohemiancoding.com/sketch -->
    <title>Icon Pass a skype2x</title>
    <desc>Created with Sketch.</desc>
    <defs>
        <path d="M45.5761536,19 L122.962179,19 C125.192206,19 127,20.798457 127,22.9989555 L127,94.0010445 C127,96.2096066 125.193235,98 122.963382,98 L23.036618,98 C20.8072554,98 19,96.2044331 19,94.0055936 L19,46.2734375" id="path-1"></path>
        <mask id="mask-2" maskContentUnits="userSpaceOnUse" maskUnits="objectBoundingBox" x="0" y="0" width="108" height="79" fill="white">
            <use xlink:href="#path-1"></use>
        </mask>
    </defs>
    <g id="Symbols" stroke="none" stroke-width="1" fill="none" fill-rule="evenodd">
        <g id="Icon-Pass-a-skype">
            <g>
                <use id="Rectangle-2-Copy-2" stroke="#384773" mask="url(#mask-2)" stroke-width="4" xlink:href="#path-1"></use>
                <circle id="Oval-3-Copy-11" fill="#7ED321" cx="20" cy="20" r="20"></circle>
                <text id="3" font-family="PFSquareSansPro-Medium, PF Square Sans Pro" font-size="18" font-weight="400" letter-spacing="0.600000024" fill="#FFFFFF">
                    <tspan x="15" y="26">3</tspan>
                </text>
                <path d="M83.5355695,68.1197312 C82.5783862,69.4743155 81.1639362,70.5475648 79.3316488,71.3096018 C77.5169101,72.0638641 75.3414228,72.4462709 72.8652746,72.4462709 C69.8934303,72.4462709 67.4015105,71.9235853 65.4567113,70.8918754 C64.0663631,70.1409452 62.9201422,69.1238963 62.049814,67.8686067 C61.1708225,66.6007664 60.7249958,65.3428111 60.7249958,64.1296163 C60.7249958,63.3713556 61.0155495,62.7139446 61.5882157,62.1759316 C62.1551063,61.6428056 62.8816016,61.3725773 63.7477092,61.3725773 C64.458766,61.3725773 65.071972,61.5860499 65.5704448,62.0074416 C66.0468151,62.4110624 66.4555451,63.0082746 66.7837508,63.7796413 C67.150386,64.6193147 67.5504526,65.3283723 67.9726218,65.8870439 C68.3783529,66.4242794 68.9622369,66.8757705 69.708058,67.2284112 C70.4580996,67.5836064 71.469373,67.7636475 72.7133337,67.7636475 C74.4241128,67.7636475 75.8264564,67.3983451 76.8813795,66.6780696 C77.9119787,65.9745654 78.4127839,65.130005 78.4127839,64.0960737 C78.4127839,63.2791692 78.15133,62.6370856 77.6136502,62.1333926 C77.0505359,61.6067085 76.3078247,61.196979 75.4058422,60.915755 C74.465208,60.6225357 73.1884823,60.3063253 71.6093186,59.9757872 C69.4619315,59.5157439 67.6374188,58.969734 66.1863164,58.3526406 C64.702449,57.7214417 63.5064697,56.8463375 62.6316988,55.7510968 C61.7431554,54.6393069 61.292664,53.2441828 61.292664,51.6041539 C61.292664,50.0410951 61.7654801,48.6320875 62.6977842,47.4166713 C63.623091,46.2098073 64.9744544,45.2717277 66.7143333,44.6283112 C68.4315544,43.9932249 70.4742045,43.671239 72.7856389,43.671239 C74.633698,43.671239 76.2582884,43.8848226 77.6144277,44.3064364 C78.9784528,44.7312712 80.1282279,45.3048259 81.0317654,46.0106625 C81.9416338,46.7214972 82.6187038,47.4823124 83.0436497,48.2724496 C83.4731493,49.0703615 83.6909535,49.8646082 83.6909535,50.632865 C83.6909535,51.3722441 83.4052868,52.044094 82.8420614,52.629644 C82.2753929,53.2188593 81.5604487,53.5177431 80.7168879,53.5177431 C79.9506303,53.5177431 79.3508636,53.3307047 78.934581,52.9619592 C78.5473982,52.6196479 78.1455545,52.0859666 77.6997279,51.3182651 C77.1837063,50.3378686 76.5590604,49.5648359 75.8426723,49.020381 C75.1473871,48.4914755 73.9852835,48.2230244 72.3881268,48.2230244 C70.9047037,48.2230244 69.6983951,48.5207975 68.8028544,49.1080136 C67.9397457,49.6739046 67.5202421,50.3227634 67.5202421,51.0914644 C67.5202421,51.5629477 67.6551896,51.9570167 67.9329705,52.295996 C68.2270784,52.6553007 68.641806,52.9705115 69.1661576,53.2328539 C69.7100572,53.5063031 70.2703948,53.7234409 70.8317321,53.8784917 C71.4068418,54.0380963 72.3717999,54.2745599 73.6948409,54.5803299 C75.3693008,54.9397457 76.90848,55.342589 78.2693952,55.7774199 C79.6471928,56.2185817 80.838174,56.7624813 81.8091298,57.3942356 C82.8002999,58.0396512 83.5851058,58.8685511 84.1420003,59.8580552 C84.7003388,60.8513356 84.9833398,62.0773033 84.9833398,63.5018604 C84.9833398,65.2063087 84.4961959,66.7599267 83.5355695,68.1197312 M93.1362803,62.6708502 C93.4491587,61.2402954 93.6155384,59.7552063 93.6155384,58.2307991 C93.6155384,46.803021 84.3512523,37.5386239 72.9230299,37.5386239 C71.7164991,37.5386239 70.5342922,37.6429166 69.384295,37.8412839 C67.5349031,36.6762926 65.3469762,36 62.9998889,36 C56.3724663,36 51,41.3729105 51,47.9997779 C51,50.2150275 51.6027656,52.2883323 52.6494697,54.0694174 C52.3750208,55.4137835 52.2307436,56.8053535 52.2307436,58.2307991 C52.2307436,69.6586883 61.4949186,78.9231965 72.9230299,78.9231965 C74.2174154,78.9231965 75.4835897,78.8032432 76.7118898,78.5759982 C78.4012329,79.4838674 80.3325929,80 82.3847948,80 C89.0123285,80 94.3847948,74.6275337 94.3847948,68.0001111 C94.3847948,66.0854112 93.9340812,64.2767813 93.1362803,62.6708502" id="Fill-1" fill="#00AAF1"></path>
            </g>
        </g>
    </g>
</svg>