<?xml version="1.0" encoding="UTF-8" standalone="no"?>
<svg width="114px" height="114px" viewBox="0 0 114 114" version="1.1" xmlns="http://www.w3.org/2000/svg" xmlns:xlink="http://www.w3.org/1999/xlink">
    <!-- Generator: Sketch 41 (35326) - http://www.bohemiancoding.com/sketch -->
    <title>Icon Deliver the customer2x</title>
    <desc>Created with Sketch.</desc>
    <defs>
        <rect id="path-1" x="29" y="44" width="56" height="6"></rect>
        <mask id="mask-2" maskContentUnits="userSpaceOnUse" maskUnits="objectBoundingBox" x="0" y="0" width="56" height="6" fill="white">
            <use xlink:href="#path-1"></use>
        </mask>
        <rect id="path-3" x="32" y="40" width="49" height="6"></rect>
        <mask id="mask-4" maskContentUnits="userSpaceOnUse" maskUnits="objectBoundingBox" x="0" y="0" width="49" height="6" fill="white">
            <use xlink:href="#path-3"></use>
        </mask>
        <rect id="path-5" x="35" y="36" width="43" height="6"></rect>
        <mask id="mask-6" maskContentUnits="userSpaceOnUse" maskUnits="objectBoundingBox" x="0" y="0" width="43" height="6" fill="white">
            <use xlink:href="#path-5"></use>
        </mask>
    </defs>
    <g id="Symbols" stroke="none" stroke-width="1" fill="none" fill-rule="evenodd">
        <g id="Icon-Deliver-the-customer">
            <g>
                <ellipse id="Oval-12-Copy-4" fill="#EDEEF2" cx="57" cy="57" rx="57" ry="57"></ellipse>
                <polygon id="Rectangle-16-Copy-2" stroke="#384773" stroke-width="2" fill="#FFFFFF" points="28 49 86 49 86 78 28 78"></polygon>
                <use id="Rectangle-16" stroke="#384773" mask="url(#mask-2)" stroke-width="4" xlink:href="#path-1"></use>
                <use id="Rectangle-16-Copy-3" stroke="#384773" mask="url(#mask-4)" stroke-width="4" xlink:href="#path-3"></use>
                <use id="Rectangle-16-Copy-4" stroke="#384773" mask="url(#mask-6)" stroke-width="4" xlink:href="#path-5"></use>
                <rect id="Rectangle-20" fill="#A6998A" transform="translate(80.000000, 63.500000) scale(-1, 1) translate(-80.000000, -63.500000) " x="75" y="50" width="10" height="27"></rect>
                <rect id="Rectangle-20-Copy" fill="#A6998A" x="29" y="50" width="10" height="27"></rect>
                <circle id="Oval-13" fill="#733A26" cx="57" cy="63" r="7"></circle>
                <path d="M63.0081126,36.80977 L63.9132233,36.6587629 C66.3470485,36.2532807 68.2532807,34.3470485 68.6587629,31.9141555 L68.80977,31.0081126 C69.0334843,29.6639625 70.9658166,29.6639625 71.190463,31.0081126 L71.340538,31.9141555 C71.7469523,34.3470485 73.6531846,36.2532807 76.0860776,36.6587629 L76.9911883,36.80977 C78.3362706,37.0334843 78.3362706,38.9658166 76.9911883,39.190463 L76.0860776,39.3414702 C73.6531846,39.7469523 71.7469523,41.6531846 71.340538,44.0860776 L71.190463,44.9921205 C70.9658166,46.3362706 69.0334843,46.3362706 68.80977,44.9921205 L68.6587629,44.0860776 C68.2532807,41.6531846 66.3470485,39.7469523 63.9132233,39.3414702 L63.0081126,39.190463 C61.6639625,38.9658166 61.6639625,37.0334843 63.0081126,36.80977 Z" id="Page-1-Copy-11" stroke="#384773" stroke-width="2" fill="#FFFFFF"></path>
                <polyline id="Rectangle-21" stroke="#384773" stroke-width="2" points="44 74 32 74 32 53 44 53"></polyline>
                <polyline id="Rectangle-21-Copy" stroke="#384773" stroke-width="2" transform="translate(76.078947, 63.500000) scale(-1, 1) translate(-76.078947, -63.500000) " points="82.1578947 74 70 74 70 53 82.1578947 53"></polyline>
                <path d="M46,53 L68,53" id="Path-30" stroke="#384773" stroke-width="2"></path>
                <path d="M46,74 L68,74" id="Path-30-Copy" stroke="#384773" stroke-width="2"></path>
            </g>
        </g>
    </g>
</svg>