<?xml version="1.0" encoding="UTF-8" standalone="no"?>
<svg width="220px" height="92px" viewBox="0 0 220 92" version="1.1" xmlns="http://www.w3.org/2000/svg" xmlns:xlink="http://www.w3.org/1999/xlink">
    <!-- Generator: Sketch 41 (35326) - http://www.bohemiancoding.com/sketch -->
    <title>Icon It's difficult to organize2x</title>
    <desc>Created with Sketch.</desc>
    <defs></defs>
    <g id="Symbols" stroke="none" stroke-width="1" fill="none" fill-rule="evenodd">
        <g id="Icon-It's-difficult-to-organize" transform="translate(0.000000, 1.000000)">
            <g>
                <path d="M59,44 L162,44 L162,46 L59,46 L59,44 Z M54,44 L0,44 L0,46 L54,46 L54,44 Z M167,44 L220,44 L220,46 L167,46 L167,44 Z" id="Combined-Shape" fill="#384773"></path>
                <rect id="Rectangle-35-Copy" fill="#384773" transform="translate(53.500000, 60.000000) rotate(-43.000000) translate(-53.500000, -60.000000) " x="32" y="59" width="43" height="2"></rect>
                <rect id="Rectangle-35-Copy" fill="#384773" transform="translate(167.500000, 60.000000) scale(-1, 1) rotate(-43.000000) translate(-167.500000, -60.000000) " x="146" y="59" width="43" height="2"></rect>
                <rect id="Rectangle-35-Copy" fill="#384773" transform="translate(53.500000, 30.000000) scale(-1, 1) rotate(-43.000000) translate(-53.500000, -30.000000) " x="32" y="29" width="43" height="2"></rect>
                <rect id="Rectangle-35-Copy" fill="#384773" transform="translate(167.500000, 30.000000) rotate(-43.000000) translate(-167.500000, -30.000000) " x="146" y="29" width="43" height="2"></rect>
                <g id="Group-10" transform="translate(13.000000, 0.000000)">
                    <circle id="Oval-11-Copy-3" stroke="#384773" stroke-width="2" fill="#FFFFFF" cx="97.5" cy="3.5" r="3.5"></circle>
                    <circle id="Oval-11-Copy-4" stroke="#384773" stroke-width="2" fill="#FFFFFF" cx="97.5" cy="86.5" r="3.5"></circle>
                    <circle id="Oval-11-Copy-6" stroke="#384773" stroke-width="2" fill="#FFFFFF" cx="138.5" cy="45.5" r="5.5"></circle>
                    <circle id="Oval-11-Copy-14" stroke="#384773" stroke-width="2" fill="#FFFFFF" cx="189.5" cy="45.5" r="3.5"></circle>
                    <circle id="Oval-11-Copy-12" stroke="#384773" stroke-width="2" fill="#FFFFFF" cx="56.5" cy="45.5" r="5.5"></circle>
                    <circle id="Oval-11-Copy-15" stroke="#384773" stroke-width="2" fill="#FFFFFF" cx="29.5" cy="19.5" r="5.5"></circle>
                    <circle id="Oval-11-Copy-17" stroke="#384773" stroke-width="2" fill="#FFFFFF" cx="29.5" cy="70.5" r="5.5"></circle>
                    <circle id="Oval-11-Copy-16" stroke="#384773" stroke-width="2" fill="#FFFFFF" cx="165.5" cy="19.5" r="5.5"></circle>
                    <circle id="Oval-11-Copy-18" stroke="#384773" stroke-width="2" fill="#FFFFFF" cx="165.5" cy="70.5" r="5.5"></circle>
                    <circle id="Oval-11-Copy-13" stroke="#384773" stroke-width="2" fill="#FFFFFF" cx="3.5" cy="45.5" r="3.5"></circle>
                    <path d="M94.0393538,19.998005 C95.9506159,18.8945373 99.0593815,18.9003093 100.960646,19.998005 L116.989027,29.251995 C118.900289,30.3554627 120.449673,33.0506187 120.449673,35.24601 L120.449673,53.75399 C120.449673,55.9609254 118.890292,58.6503093 116.989027,59.748005 L100.960646,69.001995 C99.0493841,70.1054627 95.9406185,70.0996907 94.0393538,69.001995 L78.010973,59.748005 C76.0997109,58.6445373 74.5503268,55.9493813 74.5503268,53.75399 L74.5503268,35.24601 C74.5503268,33.0390746 76.1097083,30.3496907 78.010973,29.251995 L94.0393538,19.998005 Z" id="Polygon" fill="#FFFFFF"></path>
                    <polygon id="Rectangle-37" fill="#A6998A" points="98 44 119.5 31 119.5 57.5 98 70"></polygon>
                    <polygon id="Path-8" fill="#D8D8D8" points="75.5 57 75.5 31.5 98 44 98 70 96.5 70"></polygon>
                    <path d="M94.0393538,19.998005 C95.9506159,18.8945373 99.0593815,18.9003093 100.960646,19.998005 L116.989027,29.251995 C118.900289,30.3554627 120.449673,33.0506187 120.449673,35.24601 L120.449673,53.75399 C120.449673,55.9609254 118.890292,58.6503093 116.989027,59.748005 L100.960646,69.001995 C99.0493841,70.1054627 95.9406185,70.0996907 94.0393538,69.001995 L78.010973,59.748005 C76.0997109,58.6445373 74.5503268,55.9493813 74.5503268,53.75399 L74.5503268,35.24601 C74.5503268,33.0390746 76.1097083,30.3496907 78.010973,29.251995 L94.0393538,19.998005 Z" id="Polygon" stroke="#384773" stroke-width="2"></path>
                </g>
                <path d="M126.008113,32.80977 L126.913223,32.6587629 C129.347048,32.2532807 131.253281,30.3470485 131.658763,27.9141555 L131.80977,27.0081126 C132.033484,25.6639625 133.965817,25.6639625 134.190463,27.0081126 L134.340538,27.9141555 C134.746952,30.3470485 136.653185,32.2532807 139.086078,32.6587629 L139.991188,32.80977 C141.336271,33.0334843 141.336271,34.9658166 139.991188,35.190463 L139.086078,35.3414702 C136.653185,35.7469523 134.746952,37.6531846 134.340538,40.0860776 L134.190463,40.9921205 C133.965817,42.3362706 132.033484,42.3362706 131.80977,40.9921205 L131.658763,40.0860776 C131.253281,37.6531846 129.347048,35.7469523 126.913223,35.3414702 L126.008113,35.190463 C124.663962,34.9658166 124.663962,33.0334843 126.008113,32.80977 Z" id="Page-1-Copy-13" stroke="#384773" stroke-width="2" fill="#FFFFFF"></path>
                <path d="M93,34 L104,40" id="Path-3" stroke="#384773" stroke-width="2" stroke-linecap="round"></path>
                <polygon id="Triangle-6" fill="#384773" points="105.5 47 108 55 103 52"></polygon>
                <polygon id="Rectangle-38" fill="#384773" points="99 59 108 64 108 66 99 61"></polygon>
                <polygon id="Rectangle-38-Copy" fill="#384773" points="104 58.5 108 60.5 108 62.5 104 60.5"></polygon>
            </g>
        </g>
    </g>
</svg>