<svg id="Layer_1" enable-background="new 0 0 511.851 511.851" height="512" viewBox="0 0 511.851 511.851" width="512" xmlns="http://www.w3.org/2000/svg"><g><path d="m281.906 408.638c-4.1 0-7.512 3.36-7.527 7.473-.106 29.014-.106 58.761 0 88.416.035 9.801 15.035 9.748 15-.054-.105-29.619-.105-59.33 0-88.308.014-4.142-3.331-7.512-7.473-7.527z"/><path d="m493.196 48.007c-5.244-7.784-17.923.247-12.438 8.384 10.477 15.543 16.015 33.72 16.015 52.564v118.714c0 7.814-6.376 14.171-14.219 14.171 0 0-189.387-.145-193.156-.143v-133.147c0-39.796-21.531-74.653-53.551-93.55h167.278c18.765 0 36.865 5.545 52.346 16.036 7.854 5.325 16.482-6.95 8.414-12.417-17.974-12.181-38.984-18.619-60.76-18.619h-222.277-.099-.099c-59.854 0-108.55 48.695-108.55 108.55v138.594l-60.103 93.812c-17.053 26.591-16.672 61.261 6.765 83.834 19.087 18.384 46.838 23.425 72.453 22.478 58.789-2.174 101.805-42.727 131.895-90.021l51.164-81.522c.004 30.883.022 62.307.104 93.409.025 9.801 15.025 9.763 15-.039-.098-37.403-.105-75.293-.105-112.13l34-.022c0 84.336-.011 164.32-.428 247.519-.049 9.802 14.951 9.876 15 .075.416-83.145.427-166.666.428-247.604l144.286-.093c16.108 0 29.214-13.086 29.214-29.171v-118.714c0-21.843-6.424-42.918-18.577-60.948zm-318.599 193.894v-77.561l20.375 24.615c1.425 1.722 3.543 2.718 5.777 2.718h73.648v50.292zm99.801-65.229h-70.121l-21.236-25.654h91.357zm0-40.654h-107.301c-4.075 0-7.5 3.431-7.5 7.5v17.438h-18.802v-45.727h133.604v20.789zm-114.801 39.939v65.935l-39.852-.026v-65.909zm21.054-160.957h.099.099c48.779 0 88.951 37.53 93.176 85.229h-140.731c-4.142 0-7.5 3.358-7.5 7.5v53.227h-13.55c-4.142 0-7.5 3.358-7.5 7.5v73.4l-17.644-.011v-133.295c.001-51.584 41.967-93.55 93.551-93.55zm29.778 334.234c-27.301 42.912-65.759 80.756-119.373 82.97-47.54 1.963-97.82-31.664-66.383-83.226l59.029-92.135 184.64.118z"/><path d="m441.44 114.564h-80.746c-18.95 0-34.368 15.394-34.368 34.316s15.418 34.316 34.368 34.316c16.372 0 30.106-11.489 33.542-26.816h47.204c26.931 0 26.974-41.816 0-41.816zm0 26.816h-53.877c-4.143 0-7.5 3.358-7.5 7.5 0 10.651-8.688 19.316-19.369 19.316-10.68 0-19.368-8.666-19.368-19.316s8.688-19.316 19.368-19.316h80.746c7.667 0 7.667 11.816 0 11.816z"/></g></svg>